<svg width="112" height="19" viewBox="0 0 112 19" fill="none" xmlns="http://www.w3.org/2000/svg">
<path d="M16.34 9.324C16.34 10.596 16.128 11.764 15.704 12.828C15.28 13.892 14.684 14.808 13.916 15.576C13.148 16.344 12.224 16.94 11.144 17.364C10.064 17.788 8.864 18 7.544 18H0.932V0.647999H7.544C8.864 0.647999 10.064 0.863999 11.144 1.296C12.224 1.72 13.148 2.316 13.916 3.084C14.684 3.844 15.28 4.756 15.704 5.82C16.128 6.884 16.34 8.052 16.34 9.324ZM13.028 9.324C13.028 8.372 12.9 7.52 12.644 6.768C12.396 6.008 12.032 5.368 11.552 4.848C11.08 4.32 10.504 3.916 9.824 3.636C9.152 3.356 8.392 3.216 7.544 3.216H4.172V15.432H7.544C8.392 15.432 9.152 15.292 9.824 15.012C10.504 14.732 11.08 14.332 11.552 13.812C12.032 13.284 12.396 12.644 12.644 11.892C12.9 11.132 13.028 10.276 13.028 9.324ZM22.4298 3.216V8.028H28.5018V10.512H22.4298V15.42H30.1338V18H19.1898V0.647999H30.1338V3.216H22.4298ZM47.8625 0.647999L40.8545 18H37.9385L30.9305 0.647999H33.5225C33.8025 0.647999 34.0305 0.715999 34.2065 0.852C34.3825 0.987999 34.5145 1.164 34.6025 1.38L38.6945 11.964C38.8305 12.308 38.9585 12.688 39.0785 13.104C39.2065 13.512 39.3265 13.94 39.4385 14.388C39.5345 13.94 39.6385 13.512 39.7505 13.104C39.8625 12.688 39.9865 12.308 40.1225 11.964L44.1905 1.38C44.2545 1.196 44.3785 1.028 44.5625 0.875999C44.7545 0.723999 44.9865 0.647999 45.2585 0.647999H47.8625Z" fill="#FE4A51"/>
<path d="M56.1506 15.48C56.7506 15.48 57.2546 15.408 57.6626 15.264C58.0706 15.12 58.3946 14.928 58.6346 14.688C58.8826 14.448 59.0586 14.168 59.1626 13.848C59.2746 13.528 59.3306 13.188 59.3306 12.828C59.3306 12.452 59.2706 12.116 59.1506 11.82C59.0306 11.516 58.8426 11.26 58.5866 11.052C58.3306 10.836 57.9986 10.672 57.5906 10.56C57.1906 10.448 56.7066 10.392 56.1386 10.392H52.8866V15.48H56.1506ZM52.8866 3.144V8.16H55.4546C56.5586 8.16 57.3906 7.96 57.9506 7.56C58.5186 7.16 58.8026 6.524 58.8026 5.652C58.8026 4.748 58.5466 4.104 58.0346 3.72C57.5226 3.336 56.7226 3.144 55.6346 3.144H52.8866ZM55.6346 0.647999C56.7706 0.647999 57.7426 0.755999 58.5506 0.972C59.3586 1.188 60.0186 1.496 60.5306 1.896C61.0506 2.296 61.4306 2.78 61.6706 3.348C61.9106 3.916 62.0306 4.556 62.0306 5.268C62.0306 5.676 61.9706 6.068 61.8506 6.444C61.7306 6.812 61.5426 7.16 61.2866 7.488C61.0386 7.808 60.7186 8.1 60.3266 8.364C59.9426 8.628 59.4826 8.852 58.9466 9.036C61.3306 9.572 62.5226 10.86 62.5226 12.9C62.5226 13.636 62.3826 14.316 62.1026 14.94C61.8226 15.564 61.4146 16.104 60.8786 16.56C60.3426 17.008 59.6826 17.36 58.8986 17.616C58.1146 17.872 57.2186 18 56.2106 18H49.6586V0.647999H55.6346ZM75.6194 15.336V18H65.4554V0.647999H68.6834V15.336H75.6194ZM93.8628 9.324C93.8628 10.596 93.6508 11.776 93.2268 12.864C92.8108 13.944 92.2188 14.88 91.4508 15.672C90.6828 16.464 89.7588 17.084 88.6788 17.532C87.5988 17.972 86.3988 18.192 85.0788 18.192C83.7668 18.192 82.5708 17.972 81.4908 17.532C80.4108 17.084 79.4828 16.464 78.7068 15.672C77.9388 14.88 77.3428 13.944 76.9188 12.864C76.4948 11.776 76.2828 10.596 76.2828 9.324C76.2828 8.052 76.4948 6.876 76.9188 5.796C77.3428 4.708 77.9388 3.768 78.7068 2.976C79.4828 2.184 80.4108 1.568 81.4908 1.128C82.5708 0.68 83.7668 0.456 85.0788 0.456C85.9588 0.456 86.7868 0.559999 87.5628 0.767999C88.3388 0.967999 89.0508 1.256 89.6988 1.632C90.3468 2 90.9268 2.452 91.4388 2.988C91.9588 3.516 92.3988 4.108 92.7588 4.764C93.1188 5.42 93.3908 6.132 93.5748 6.9C93.7668 7.668 93.8628 8.476 93.8628 9.324ZM90.5628 9.324C90.5628 8.372 90.4348 7.52 90.1788 6.768C89.9228 6.008 89.5588 5.364 89.0868 4.836C88.6148 4.308 88.0388 3.904 87.3588 3.624C86.6868 3.344 85.9268 3.204 85.0788 3.204C84.2308 3.204 83.4668 3.344 82.7868 3.624C82.1148 3.904 81.5388 4.308 81.0588 4.836C80.5868 5.364 80.2228 6.008 79.9668 6.768C79.7108 7.52 79.5828 8.372 79.5828 9.324C79.5828 10.276 79.7108 11.132 79.9668 11.892C80.2228 12.644 80.5868 13.284 81.0588 13.812C81.5388 14.332 82.1148 14.732 82.7868 15.012C83.4668 15.292 84.2308 15.432 85.0788 15.432C85.9268 15.432 86.6868 15.292 87.3588 15.012C88.0388 14.732 88.6148 14.332 89.0868 13.812C89.5588 13.284 89.9228 12.644 90.1788 11.892C90.4348 11.132 90.5628 10.276 90.5628 9.324ZM111.002 9.3V16.32C110.122 16.968 109.182 17.444 108.182 17.748C107.19 18.044 106.126 18.192 104.99 18.192C103.574 18.192 102.29 17.972 101.138 17.532C99.9936 17.092 99.0136 16.48 98.1976 15.696C97.3896 14.912 96.7656 13.976 96.3256 12.888C95.8856 11.8 95.6656 10.612 95.6656 9.324C95.6656 8.02 95.8776 6.824 96.3016 5.736C96.7256 4.648 97.3256 3.712 98.1016 2.928C98.8856 2.144 99.8336 1.536 100.946 1.104C102.058 0.671999 103.306 0.456 104.69 0.456C105.394 0.456 106.05 0.512 106.658 0.623999C107.274 0.736 107.842 0.892 108.362 1.092C108.89 1.284 109.37 1.52 109.802 1.8C110.234 2.08 110.63 2.388 110.99 2.724L110.066 4.188C109.922 4.42 109.734 4.564 109.502 4.62C109.27 4.668 109.018 4.608 108.746 4.44C108.482 4.288 108.218 4.136 107.954 3.984C107.69 3.832 107.394 3.7 107.066 3.588C106.746 3.476 106.382 3.384 105.974 3.312C105.574 3.24 105.11 3.204 104.582 3.204C103.726 3.204 102.95 3.348 102.254 3.636C101.566 3.924 100.978 4.336 100.49 4.872C100.002 5.408 99.6256 6.052 99.3616 6.804C99.0976 7.556 98.9656 8.396 98.9656 9.324C98.9656 10.316 99.1056 11.204 99.3856 11.988C99.6736 12.764 100.074 13.424 100.586 13.968C101.106 14.504 101.73 14.916 102.458 15.204C103.186 15.484 103.998 15.624 104.894 15.624C105.534 15.624 106.106 15.556 106.61 15.42C107.114 15.284 107.606 15.1 108.086 14.868V11.724H105.902C105.694 11.724 105.53 11.668 105.41 11.556C105.298 11.436 105.242 11.292 105.242 11.124V9.3H111.002Z" fill="#2D2D2D"/>
</svg>
